<?xml version="1.0" encoding="UTF-8"?><svg id="Source" xmlns="http://www.w3.org/2000/svg" viewBox="0 0 135 46"><path d="m59.79,14.73c-.21,0-.27.06-.27.26v5.48c0,1.28-1.04,1.6-1.98,1.6s-1.98-.32-1.98-1.6V3.47c0-1.1.67-1.71,1.74-1.71h7.46c3.47,0,6.27,2.09,6.27,6.5s-2.8,6.47-6.27,6.47h-4.96Zm4.81-3.63c1.4,0,2.31-.93,2.31-2.84s-.91-2.87-2.31-2.87h-4.81c-.21,0-.27.06-.27.26v5.19c0,.2.06.26.27.26h4.81Z" style="stroke-width:0px;"/><path d="m73.92,3.47c0-1.1.67-1.71,1.74-1.71h7c3.69,0,6.49,1.89,6.49,5.95,0,1.77-.76,2.78-1.58,3.51-.15.14-.21.23-.21.35s.06.23.24.38c.97.93,2.04,1.92,2.04,4.03,0,3.97-3.08,5.98-6.52,5.98h-7.46c-1.07,0-1.74-.61-1.74-1.71V3.47Zm8.8,6.5c1.13,0,2.32-.81,2.32-2.26s-1.07-2.29-2.32-2.29h-4.57c-.21,0-.27.06-.27.26v4.03c0,.2.06.26.27.26h4.57Zm-4.57,3.66c-.21,0-.27.06-.27.26v4.15c0,.2.06.26.27.26h5.03c1.28,0,2.34-.81,2.34-2.32s-1.22-2.35-2.34-2.35h-5.03Z" style="stroke-width:0px;"/><path d="m93.04,3.24c0-1.28,1.07-1.59,1.98-1.59s1.98.32,1.98,1.59v17.23c0,1.28-1.04,1.6-1.98,1.6s-1.98-.32-1.98-1.6V3.24Z" style="stroke-width:0px;"/><path d="m56.37,27.03c-.14,0-.18.04-.18.18v4.84c0,.14.04.18.18.18h6c.32,0,.44.26.44.5,0,.26-.12.5-.44.5h-6c-.14,0-.18.04-.18.18v5.36c0,.14.04.18.18.18h7.08c.32,0,.44.26.44.5,0,.26-.12.5-.44.5h-7.88c-.26,0-.5-.1-.5-.4v-13.12c0-.3.24-.4.5-.4h7.68c.32,0,.44.26.44.5,0,.26-.12.5-.44.5h-6.88Z" style="stroke-width:0px;"/><path d="m69.21,35.75l-3.1,4.12c-.1.12-.2.16-.3.16-.18,0-.52-.2-.52-.46,0-.08.04-.18.1-.26l3.26-4.32c.04-.06.04-.08.04-.12s0-.06-.04-.12l-2.8-3.76c-.06-.08-.08-.16-.08-.24,0-.22.28-.48.52-.48.1,0,.2.02.3.14l2.62,3.58c.04.06.04.12.1.12s.06-.06.1-.12l2.62-3.58c.1-.12.2-.14.3-.14.24,0,.52.26.52.48,0,.08-.02.16-.08.24l-2.8,3.76c-.04.06-.04.08-.04.12s0,.06.04.12l3.26,4.32c.06.08.1.18.1.26,0,.26-.34.46-.52.46-.1,0-.2-.04-.3-.16l-3.1-4.12c-.04-.06-.04-.12-.1-.12s-.06.06-.1.12Z" style="stroke-width:0px;"/><path d="m82.97,35.15c0,2.76-.56,4.88-3.7,4.88-.72,0-1.66-.1-2.56-.86-.02-.02-.16-.14-.2-.14-.08,0-.1.06-.1.12v4.76c0,.32-.26.44-.5.44-.26,0-.5-.12-.5-.44v-13.2c0-.32.24-.44.5-.44.24,0,.5.12.5.44v.42c0,.12.04.14.1.14.04,0,.14-.08.2-.14.9-.76,1.84-.86,2.56-.86,3.12,0,3.7,2.12,3.7,4.88Zm-1,0c0-2.32-.22-3.96-2.84-3.96-2.44,0-2.72,1.44-2.72,3.96,0,2.16.06,3.96,2.72,3.96s2.84-1.64,2.84-3.96Z" style="stroke-width:0px;"/><path d="m85.93,38.05v-11.66c0-.32.24-.44.5-.44.24,0,.5.12.5.44v11.52c0,.9.34,1.18,1.16,1.18.24,0,.42.14.42.44,0,.36-.22.5-.66.5-1.06,0-1.92-.46-1.92-1.98Z" style="stroke-width:0px;"/><path d="m93.93,30.27c3.32,0,3.84,2.12,3.84,4.88s-.52,4.88-3.84,4.88-3.84-2.12-3.84-4.88.52-4.88,3.84-4.88Zm0,8.84c2.62,0,2.84-1.64,2.84-3.96s-.22-3.96-2.84-3.96-2.84,1.64-2.84,3.96.22,3.96,2.84,3.96Z" style="stroke-width:0px;"/><path d="m104.91,31.35c-.24,0-.14-.02-.66-.02-2,0-2.52,1.18-2.52,3.66v4.6c0,.32-.26.44-.5.44-.26,0-.5-.12-.5-.44v-8.88c0-.32.24-.44.5-.44.24,0,.5.12.5.44v.42c0,.08.02.14.1.14.04,0,.14-.12.2-.18.88-.78,1.94-.82,2.36-.82.62,0,1.02,0,1.02.58,0,.28-.1.5-.5.5Z" style="stroke-width:0px;"/><path d="m113.31,38.15c.28,0,.5.28.5.54,0,.12-.12.28-.28.38-.82.54-1.94.96-3.16.96-3.3,0-3.98-1.78-3.98-4.88,0-2.74.54-4.88,3.84-4.88,2.72,0,3.76,1.5,3.76,4.18,0,.6-.12,1.18-.94,1.18h-5.5c-.12,0-.16.06-.16.14.06,2.18.52,3.34,3.12,3.34.72,0,1.46-.22,2.24-.66.24-.14.42-.3.56-.3Zm-3.08-6.98c-2.26,0-2.84,1.28-2.84,3.36,0,.1.02.18.16.18h5.36c.08,0,.14-.02.14-.12,0-1.98-.44-3.42-2.82-3.42Z" style="stroke-width:0px;"/><path d="m121.03,31.35c-.24,0-.14-.02-.66-.02-2,0-2.52,1.18-2.52,3.66v4.6c0,.32-.26.44-.5.44-.26,0-.5-.12-.5-.44v-8.88c0-.32.24-.44.5-.44.24,0,.5.12.5.44v.42c0,.08.02.14.1.14.04,0,.14-.12.2-.18.88-.78,1.94-.82,2.36-.82.62,0,1.02,0,1.02.58,0,.28-.1.5-.5.5Z" style="stroke-width:0px;"/><path d="m18.47,38.65c-2.07,0-3.75-1.68-3.75-3.75v-17.52c0-2.07,1.68-3.75,3.75-3.75h2c2.07,0,3.75,1.68,3.75,3.75v5.13h3.79c2.07,0,3.75,1.68,3.75,3.75v2.71h3.95c2.07,0,3.75,1.68,3.75,3.75v2.18c0,2.07-1.68,3.75-3.75,3.75h-17.24Z" style="fill:#61ceba; stroke-width:0px;"/><path d="m28.04,23.75h-9.57c-1.38,0-2.5,1.12-2.5,2.5v8.65c0,1.38,1.12,2.5,2.5,2.5h12.07s0-11.15,0-11.15c0-1.38-1.12-2.5-2.5-2.5Z" style="fill:#31bfa5; stroke-width:0px;"/><path d="m20.51,14.88h-2.04c-1.38,0-2.5,1.12-2.5,2.5v17.52c0,1.38,1.12,2.5,2.5,2.5h4.54s0-20.02,0-20.02c0-1.38-1.12-2.5-2.5-2.5Z" style="fill:#19b094; stroke-width:0px;"/><path d="m44.39,25.24l-5.51-5.48c1.06-1.46,1.63-3.2,1.63-5.04,0-4.76-3.87-8.63-8.63-8.63-4.28,0-7.83,3.14-8.5,7.23-.82-.59-1.82-.95-2.91-.95h-2c-2.76,0-5,2.24-5,5v17.52c0,2.76,2.24,5,5,5h17.24c2.76,0,5-2.24,5-5v-2.18c0-2.76-2.24-5-5-5h-2.7v-1.46c0-1.09-.36-2.1-.96-2.92,1.78-.03,3.46-.58,4.87-1.61l5.48,5.48c.27.26.62.42.97.42.38,0,.73-.15.96-.41.29-.26.46-.61.47-.98.01-.37-.13-.72-.4-.99Zm-25.92,12.16c-1.38,0-2.5-1.12-2.5-2.5v-17.52c0-1.38,1.12-2.5,2.5-2.5h2c1.34,0,2.43,1.06,2.49,2.39v20.13h-4.49Zm5.51,0v-13.64h4.03c1.38,0,2.49,1.11,2.5,2.48v11.15h-6.53Zm11.73-7.18c1.38,0,2.5,1.12,2.5,2.5v2.18c0,1.38-1.12,2.5-2.5,2.5h-4.2v-7.18h4.2Zm-3.8-9.63c-3.23,0-5.86-2.63-5.86-5.86s2.63-5.86,5.86-5.86,5.86,2.63,5.86,5.86-2.63,5.86-5.86,5.86Z" style="stroke-width:0px;"/></svg>